<svg xmlns="http://www.w3.org/2000/svg" width="1920" height="945" style="cursor: move;"><g transform="translate(0,0) scale(1)"><path class="link" marker-end="" d="M862,282.5, 1029,362.5" style="stroke-width: 0.75; stroke-opacity: 0.95; stroke: rgb(80, 80, 80); fill: none;"></path><path class="link" marker-end="" d="M862,282.5, 1029,402.5" style="stroke-width: 0.75; stroke-opacity: 0.95; stroke: rgb(80, 80, 80); fill: none;"></path><path class="link" marker-end="" d="M862,282.5, 1029,442.5" style="stroke-width: 0.75; stroke-opacity: 0.95; stroke: rgb(80, 80, 80); fill: none;"></path><path class="link" marker-end="" d="M862,282.5, 1029,482.5" style="stroke-width: 0.75; stroke-opacity: 0.95; stroke: rgb(80, 80, 80); fill: none;"></path><path class="link" marker-end="" d="M862,282.5, 1029,522.5" style="stroke-width: 0.75; stroke-opacity: 0.95; stroke: rgb(80, 80, 80); fill: none;"></path><path class="link" marker-end="" d="M862,282.5, 1029,562.5" style="stroke-width: 0.75; stroke-opacity: 0.95; stroke: rgb(80, 80, 80); fill: none;"></path><path class="link" marker-end="" d="M862,322.5, 1029,362.5" style="stroke-width: 0.75; stroke-opacity: 0.95; stroke: rgb(80, 80, 80); fill: none;"></path><path class="link" marker-end="" d="M862,322.5, 1029,402.5" style="stroke-width: 0.75; stroke-opacity: 0.95; stroke: rgb(80, 80, 80); fill: none;"></path><path class="link" marker-end="" d="M862,322.5, 1029,442.5" style="stroke-width: 0.75; stroke-opacity: 0.95; stroke: rgb(80, 80, 80); fill: none;"></path><path class="link" marker-end="" d="M862,322.5, 1029,482.5" style="stroke-width: 0.75; stroke-opacity: 0.95; stroke: rgb(80, 80, 80); fill: none;"></path><path class="link" marker-end="" d="M862,322.5, 1029,522.5" style="stroke-width: 0.75; stroke-opacity: 0.95; stroke: rgb(80, 80, 80); fill: none;"></path><path class="link" marker-end="" d="M862,322.5, 1029,562.5" style="stroke-width: 0.75; stroke-opacity: 0.95; stroke: rgb(80, 80, 80); fill: none;"></path><path class="link" marker-end="" d="M862,362.5, 1029,362.5" style="stroke-width: 0.75; stroke-opacity: 0.95; stroke: rgb(80, 80, 80); fill: none;"></path><path class="link" marker-end="" d="M862,362.5, 1029,402.5" style="stroke-width: 0.75; stroke-opacity: 0.95; stroke: rgb(80, 80, 80); fill: none;"></path><path class="link" marker-end="" d="M862,362.5, 1029,442.5" style="stroke-width: 0.75; stroke-opacity: 0.95; stroke: rgb(80, 80, 80); fill: none;"></path><path class="link" marker-end="" d="M862,362.5, 1029,482.5" style="stroke-width: 0.75; stroke-opacity: 0.95; stroke: rgb(80, 80, 80); fill: none;"></path><path class="link" marker-end="" d="M862,362.5, 1029,522.5" style="stroke-width: 0.75; stroke-opacity: 0.95; stroke: rgb(80, 80, 80); fill: none;"></path><path class="link" marker-end="" d="M862,362.5, 1029,562.5" style="stroke-width: 0.75; stroke-opacity: 0.95; stroke: rgb(80, 80, 80); fill: none;"></path><path class="link" marker-end="" d="M862,402.5, 1029,362.5" style="stroke-width: 0.75; stroke-opacity: 0.95; stroke: rgb(80, 80, 80); fill: none;"></path><path class="link" marker-end="" d="M862,402.5, 1029,402.5" style="stroke-width: 0.75; stroke-opacity: 0.95; stroke: rgb(80, 80, 80); fill: none;"></path><path class="link" marker-end="" d="M862,402.5, 1029,442.5" style="stroke-width: 0.75; stroke-opacity: 0.95; stroke: rgb(80, 80, 80); fill: none;"></path><path class="link" marker-end="" d="M862,402.5, 1029,482.5" style="stroke-width: 0.75; stroke-opacity: 0.95; stroke: rgb(80, 80, 80); fill: none;"></path><path class="link" marker-end="" d="M862,402.5, 1029,522.5" style="stroke-width: 0.75; stroke-opacity: 0.95; stroke: rgb(80, 80, 80); fill: none;"></path><path class="link" marker-end="" d="M862,402.5, 1029,562.5" style="stroke-width: 0.75; stroke-opacity: 0.95; stroke: rgb(80, 80, 80); fill: none;"></path><path class="link" marker-end="" d="M862,442.5, 1029,362.5" style="stroke-width: 0.75; stroke-opacity: 0.95; stroke: rgb(80, 80, 80); fill: none;"></path><path class="link" marker-end="" d="M862,442.5, 1029,402.5" style="stroke-width: 0.75; stroke-opacity: 0.95; stroke: rgb(80, 80, 80); fill: none;"></path><path class="link" marker-end="" d="M862,442.5, 1029,442.5" style="stroke-width: 0.75; stroke-opacity: 0.95; stroke: rgb(80, 80, 80); fill: none;"></path><path class="link" marker-end="" d="M862,442.5, 1029,482.5" style="stroke-width: 0.75; stroke-opacity: 0.95; stroke: rgb(80, 80, 80); fill: none;"></path><path class="link" marker-end="" d="M862,442.5, 1029,522.5" style="stroke-width: 0.75; stroke-opacity: 0.95; stroke: rgb(80, 80, 80); fill: none;"></path><path class="link" marker-end="" d="M862,442.5, 1029,562.5" style="stroke-width: 0.75; stroke-opacity: 0.95; stroke: rgb(80, 80, 80); fill: none;"></path><path class="link" marker-end="" d="M862,482.5, 1029,362.5" style="stroke-width: 0.75; stroke-opacity: 0.95; stroke: rgb(80, 80, 80); fill: none;"></path><path class="link" marker-end="" d="M862,482.5, 1029,402.5" style="stroke-width: 0.75; stroke-opacity: 0.95; stroke: rgb(80, 80, 80); fill: none;"></path><path class="link" marker-end="" d="M862,482.5, 1029,442.5" style="stroke-width: 0.75; stroke-opacity: 0.95; stroke: rgb(80, 80, 80); fill: none;"></path><path class="link" marker-end="" d="M862,482.5, 1029,482.5" style="stroke-width: 0.75; stroke-opacity: 0.95; stroke: rgb(80, 80, 80); fill: none;"></path><path class="link" marker-end="" d="M862,482.5, 1029,522.5" style="stroke-width: 0.75; stroke-opacity: 0.95; stroke: rgb(80, 80, 80); fill: none;"></path><path class="link" marker-end="" d="M862,482.5, 1029,562.5" style="stroke-width: 0.75; stroke-opacity: 0.95; stroke: rgb(80, 80, 80); fill: none;"></path><path class="link" marker-end="" d="M862,522.5, 1029,362.5" style="stroke-width: 0.75; stroke-opacity: 0.95; stroke: rgb(80, 80, 80); fill: none;"></path><path class="link" marker-end="" d="M862,522.5, 1029,402.5" style="stroke-width: 0.75; stroke-opacity: 0.95; stroke: rgb(80, 80, 80); fill: none;"></path><path class="link" marker-end="" d="M862,522.5, 1029,442.5" style="stroke-width: 0.75; stroke-opacity: 0.95; stroke: rgb(80, 80, 80); fill: none;"></path><path class="link" marker-end="" d="M862,522.5, 1029,482.5" style="stroke-width: 0.75; stroke-opacity: 0.95; stroke: rgb(80, 80, 80); fill: none;"></path><path class="link" marker-end="" d="M862,522.5, 1029,522.5" style="stroke-width: 0.75; stroke-opacity: 0.95; stroke: rgb(80, 80, 80); fill: none;"></path><path class="link" marker-end="" d="M862,522.5, 1029,562.5" style="stroke-width: 0.75; stroke-opacity: 0.95; stroke: rgb(80, 80, 80); fill: none;"></path><path class="link" marker-end="" d="M862,562.5, 1029,362.5" style="stroke-width: 0.75; stroke-opacity: 0.95; stroke: rgb(80, 80, 80); fill: none;"></path><path class="link" marker-end="" d="M862,562.5, 1029,402.5" style="stroke-width: 0.75; stroke-opacity: 0.95; stroke: rgb(80, 80, 80); fill: none;"></path><path class="link" marker-end="" d="M862,562.5, 1029,442.5" style="stroke-width: 0.75; stroke-opacity: 0.95; stroke: rgb(80, 80, 80); fill: none;"></path><path class="link" marker-end="" d="M862,562.5, 1029,482.5" style="stroke-width: 0.75; stroke-opacity: 0.95; stroke: rgb(80, 80, 80); fill: none;"></path><path class="link" marker-end="" d="M862,562.5, 1029,522.5" style="stroke-width: 0.75; stroke-opacity: 0.95; stroke: rgb(80, 80, 80); fill: none;"></path><path class="link" marker-end="" d="M862,562.5, 1029,562.5" style="stroke-width: 0.75; stroke-opacity: 0.95; stroke: rgb(80, 80, 80); fill: none;"></path><path class="link" marker-end="" d="M862,602.5, 1029,362.5" style="stroke-width: 0.75; stroke-opacity: 0.95; stroke: rgb(80, 80, 80); fill: none;"></path><path class="link" marker-end="" d="M862,602.5, 1029,402.5" style="stroke-width: 0.75; stroke-opacity: 0.95; stroke: rgb(80, 80, 80); fill: none;"></path><path class="link" marker-end="" d="M862,602.5, 1029,442.5" style="stroke-width: 0.75; stroke-opacity: 0.95; stroke: rgb(80, 80, 80); fill: none;"></path><path class="link" marker-end="" d="M862,602.5, 1029,482.5" style="stroke-width: 0.75; stroke-opacity: 0.95; stroke: rgb(80, 80, 80); fill: none;"></path><path class="link" marker-end="" d="M862,602.5, 1029,522.5" style="stroke-width: 0.75; stroke-opacity: 0.95; stroke: rgb(80, 80, 80); fill: none;"></path><path class="link" marker-end="" d="M862,602.5, 1029,562.5" style="stroke-width: 0.75; stroke-opacity: 0.95; stroke: rgb(80, 80, 80); fill: none;"></path><path class="link" marker-end="" d="M862,642.5, 1029,362.5" style="stroke-width: 0.75; stroke-opacity: 0.95; stroke: rgb(80, 80, 80); fill: none;"></path><path class="link" marker-end="" d="M862,642.5, 1029,402.5" style="stroke-width: 0.75; stroke-opacity: 0.95; stroke: rgb(80, 80, 80); fill: none;"></path><path class="link" marker-end="" d="M862,642.5, 1029,442.5" style="stroke-width: 0.75; stroke-opacity: 0.95; stroke: rgb(80, 80, 80); fill: none;"></path><path class="link" marker-end="" d="M862,642.5, 1029,482.5" style="stroke-width: 0.75; stroke-opacity: 0.95; stroke: rgb(80, 80, 80); fill: none;"></path><path class="link" marker-end="" d="M862,642.5, 1029,522.5" style="stroke-width: 0.75; stroke-opacity: 0.95; stroke: rgb(80, 80, 80); fill: none;"></path><path class="link" marker-end="" d="M862,642.5, 1029,562.5" style="stroke-width: 0.75; stroke-opacity: 0.95; stroke: rgb(80, 80, 80); fill: none;"></path><circle r="10" class="node" id="0_0" cx="862" cy="282.5" style="fill: rgb(255, 255, 255); stroke: rgb(51, 51, 51);"></circle><circle r="10" class="node" id="0_1" cx="862" cy="322.5" style="fill: rgb(255, 255, 255); stroke: rgb(51, 51, 51);"></circle><circle r="10" class="node" id="0_2" cx="862" cy="362.5" style="fill: rgb(255, 255, 255); stroke: rgb(51, 51, 51);"></circle><circle r="10" class="node" id="0_3" cx="862" cy="402.5" style="fill: rgb(255, 255, 255); stroke: rgb(51, 51, 51);"></circle><circle r="10" class="node" id="0_4" cx="862" cy="442.5" style="fill: rgb(255, 255, 255); stroke: rgb(51, 51, 51);"></circle><circle r="10" class="node" id="0_5" cx="862" cy="482.5" style="fill: rgb(255, 255, 255); stroke: rgb(51, 51, 51);"></circle><circle r="10" class="node" id="0_6" cx="862" cy="522.5" style="fill: rgb(255, 255, 255); stroke: rgb(51, 51, 51);"></circle><circle r="10" class="node" id="0_7" cx="862" cy="562.5" style="fill: rgb(255, 255, 255); stroke: rgb(51, 51, 51);"></circle><circle r="10" class="node" id="0_8" cx="862" cy="602.5" style="fill: rgb(255, 255, 255); stroke: rgb(51, 51, 51);"></circle><circle r="10" class="node" id="0_9" cx="862" cy="642.5" style="fill: rgb(255, 255, 255); stroke: rgb(51, 51, 51);"></circle><circle r="10" class="node" id="1_0" cx="1029" cy="362.5" style="fill: rgb(255, 255, 255); stroke: rgb(51, 51, 51);"></circle><circle r="10" class="node" id="1_1" cx="1029" cy="402.5" style="fill: rgb(255, 255, 255); stroke: rgb(51, 51, 51);"></circle><circle r="10" class="node" id="1_2" cx="1029" cy="442.5" style="fill: rgb(255, 255, 255); stroke: rgb(51, 51, 51);"></circle><circle r="10" class="node" id="1_3" cx="1029" cy="482.5" style="fill: rgb(255, 255, 255); stroke: rgb(51, 51, 51);"></circle><circle r="10" class="node" id="1_4" cx="1029" cy="522.5" style="fill: rgb(255, 255, 255); stroke: rgb(51, 51, 51);"></circle><circle r="10" class="node" id="1_5" cx="1029" cy="562.5" style="fill: rgb(255, 255, 255); stroke: rgb(51, 51, 51);"></circle><text class="text" dy=".35em" x="827" y="682.5" style="font-size: 12px;">Input Layer ∈ ℝ¹⁰</text><text class="text" dy=".35em" x="994" y="682.5" style="font-size: 12px;">Output Layer ∈ ℝ⁶</text></g><defs><marker id="arrow" viewBox="0 -5 10 10" markerWidth="7" markerHeight="7" orient="auto" refX="40"><path d="M0,-5L10,0L0,5" style="stroke: rgb(80, 80, 80); fill: none;"></path></marker></defs></svg>